<?xml version="1.0" encoding="UTF-8"?>
<svg xmlns="http://www.w3.org/2000/svg" viewBox="0 0 500 500">
  <g id="Layer_2" data-name="Layer 2">
    <g id="circles">
      <path d="m476.96,135.13l-37.03,19.08C365.86,5.06,134.1,5.09,60.04,154.21l-37.03-19.08c94.68-180.21,359.32-180.14,453.95,0Z" style="stroke-width: 0px;"/>
      <path d="m407.9,170.71l-37.86,19.5c-47.47-93.14-192.65-93.13-240.11,0l-37.86-19.5c65.64-124.25,250.22-124.21,315.83,0Z" style="stroke-width: 0px;"/>
      <path d="m337.95,206.72l-35.18,18.13c-21.82-39.3-83.76-39.3-105.57,0l-35.18-18.13c35.33-67.49,140.59-67.48,175.92,0Z" style="stroke-width: 0px;"/>
      <path d="m276.52,256.53c-.6,34.87-52.47,34.87-53.06,0,.6-34.87,52.47-34.87,53.06,0Z" style="stroke-width: 0px;"/>
    </g>
  </g>
  <g id="Layer_4" data-name="Layer 4">
    <path d="m485.19,347.63c-1.01,2.44-2.08,4.87-3.17,7.27-8.98-5.68-18.36-8.03-28.28-7.42-13.85,0-26.2-3.18-37.75-9.67-4.39-2.47-9.16-4.18-14.22-5.96,3.94,4.75,7.98,9.63,12.01,14.41,11.45,11.44,25.1,16.59,45.03,18.73,5.38.52,11.37,1.11,16.71,3.16-1.99,3.76-4.07,7.47-6.24,11.13-3.23-.44-6.52-.57-9.78-.39,1.42,2.83,2.87,5.76,4.08,8.82.05.15.12.29.17.44-2.39,3.68-4.87,7.28-7.44,10.82-5.8-10.83-12.17-19.45-24.65-22.8-14.7-4.23-25.55-11.07-33.15-20.92-3.51-4.54-6.82-9.13-10.43-13.61-5.63-6.92-12.01-10.69-18.98-11.19-11.17-.81-22.77-.98-34.4-1.25,4.78,4.04,9.64,7.93,14.05,12.53,11.91,12.54,26.49,21.98,43.33,28.08,18.37,6.64,32.14,17.17,42.11,32.22,2.95,4.46,6.71,8.11,11.23,10.91-2.52,3.01-5.11,5.96-7.76,8.84-.05-.04-.09-.07-.15-.09.01.07.03.13.04.2-3.07,3.35-6.23,6.6-9.47,9.76-1.16-2.56-2.12-5.48-2.88-8.44-4.31-19.28-12.02-25.64-29.35-33.98,10.17,19.91-3.68,41.66,17.35,55.85-3.28,2.75-6.64,5.42-10.07,7.98-.03-.01-.07-.04-.09-.07.01.04.03.08.04.12-3.33,2.52-6.75,4.95-10.2,7.31-11.58-15.66-7.87-34.97-10.28-53.73-2.63-21.23-17.47-26.8-33.74-35.91,4.19,12.44,17.25,17.95,18.26,33.36.46,7.44-.21,15.25,3.11,21.9l-4.3,3.05c-4.67-4.78-6.15-10.83-6.98-16.13-1.36-8.48-5.34-14.83-12.14-19.38-9.4-6.34-15.1-15.02-16.9-25.8-1.95-11.54-8.27-20.34-18.8-26.19-13.02-7.28-26.16-14.22-39.21-21.18,3.64,28.59,26.47,44.23,47.57,62.06,30.53,26.63,17.18,43.8,34.32,62.62,5.24,5.2,10.66,9.51,16.11,12.82,4.56,2.77,8.62,5.95,12.09,9.47-3.91,2.37-7.9,4.66-11.95,6.82-7.71-4.76-15.86-8.19-22.93-14.29.51,8.03,2.64,15.1,6.8,22.2-4.5,2.01-9.07,3.91-13.71,5.66-26.55-40.98,7.21-66.65-42.73-97.19,1.17,7.36,4.44,14.15,10.04,21.05,4.42,5.43,9.4,11.58,10.3,19.69.8,7.35.87,14.55.2,21.4-.85,9.24.83,16.46,5.24,22.69,1.1,1.52,1.96,3.06,2.92,4.6l-3.95,3.49c-27.4-21.86-6.61-40.41-21.77-56.48-2.84-2.85-5.94-5.43-9.22-8.22h0c-3.09,11.02-2.27,21.41,2.51,31.67l-4.36,2.95c-33.81-36.49,1.8-41.06-23.22-81.18-5.91-9.34-10.66-17.7-13.87-26.6-9.18,27.36-18.86,51.63.09,75.44,17.65,22.1,33.1,41.64,50.72,61.19,3.99,4.32,8.08,8.76,11.71,13.62-5.51,1.45-11.1,2.72-16.75,3.8-5.44-6-11.38-12.04-17.13-18.08-2.31,7.19-3.95,14.37-4.67,21.26-4.9.49-9.83.85-14.81,1.07-.09-6.56.29-12.67,1.15-18.53,3.1-19.84-6.87-28.39-17.05-42.73-2.61,10.76-5.18,21.59-8.12,32.43-3.2,11.81-3.61,20.4-1.2,28.73-5.26-.28-10.48-.72-15.66-1.32-1.04-4.06-1.65-8.03-1.88-11.95-2.71,3.56-6.15,6.95-8.82,10.48-5.56-.87-11.07-1.93-16.51-3.16,13.5-26.64,38.44-37.82,31.13-72.77-2.25-10.13-5.95-19.37-5.82-30.29-4.9,3.74-9.77,7.42-14.18,11.19-11.46,9.05-10.57,23.48-7.87,34.99,3.29,14.71.47,26.95-8.64,37.38-4.27,4.9-6.75,10.35-7.4,16.25-2.37-.67-4.75-1.37-7.1-2.12.08-7.2,1.75-13.57,5.04-19.26,7.98-13.92,4.62-24.38-.68-38.03,0-.01-.01-.03-.01-.05-4.62,9.23-10.63,17.11-16.07,23.76-6.27,7.64-9.95,16.11-10.99,25.24-5.59-2.36-11.07-4.92-16.45-7.67,2.41-2.96,4.3-6.23,5.71-9.87l.04-.09c1.61-4.16,3.29-8.46,5.5-12.5,6.7-12.04,13.5-23.75,20.29-35.59,7.95-13.85,18.38-25.53,31-34.72,22.65-16.1,31.49-37.12,31.57-62.19.04-.53.07-1.08.09-1.63-23.17,21.59-55.05,19.7-63.78,56-4.8,20.16-13.17,34.76-26.32,45.99-14.42,12.19-8.63,31.64-14.46,47.72l-1.08.68c-1.64-.95-3.28-1.92-4.91-2.91,1.76-4.4,2.09-9.11.99-14.3-3.15,2.94-6.37,5.94-9.52,8.9-2.69-1.8-5.36-3.63-7.99-5.52,1.56-1.4,3.21-3.03,5.19-5.08,5.98-6.32,8.76-14.01,10.95-22.62h0c-4.34,1.69-8.42,3.28-12.59,4.78-7.43,2.68-13.06,6.76-17.13,12.46-5.03-4.15-9.9-8.48-14.59-13.01,3.6-2.02,7.16-4.16,10.68-6.23,7.58-4.48,15.75-8.07,23.65-11.55,25.88-10.31,30.78-21.21,36.38-46.34-8.25-.02-16.44-.05-24.65.01-8.12.05-14.27,3.66-18.26,10.73-1.76,3.13-3.39,6.79-5.12,11.51-3.35,9.03-9.24,15.69-17.54,19.8-6.1,3.03-11.79,6.28-14.65,12.42-1.65-1.75-3.27-3.54-4.86-5.34,1.56-5.21,5.94-9.45,10.67-12.57,5.64-4.1,10.96-7.95,13.21-14.46,1.46-4.21,2.5-8.51,3.91-12.75,5.07-15.98,17.21-24.17,32.92-23.85,15.47,1.28,28.4-2.18,39.43-15.13,3.92-4.5,8.48-8.25,12.91-12.05-15.67.94-31.18.14-46.86,1.2-13.43.85-23.98,6.22-31.37,15.91-4.93,6.49-8.95,13.92-12.9,21.08-3.6,6.52-7.32,13.26-13.5,18.37-7.9,6.54-13.11,14.8-15.95,25.27h-.03c-2.76-3.42-5.44-6.93-8.02-10.51.96-3.03,1.88-6.01,2.81-8.99-2.84.17-5.75.35-8.67.53-2.39-3.59-4.68-7.24-6.88-10.97,3.88-.75,7.95-1.35,12.13-1.81,11.87-1.29,21.37-10.02,26.65-24.22-11.42,5.68-23.57,6.89-35.78,3.88-5.15-1.22-10.01-1.56-15.09-.83-1.25-2.71-2.47-5.46-3.61-8.22,3.86-1.53,7.86-2.31,11.94-2.31,3.69.04,7.55.72,11.18.63,15.7,0,29.68-5.86,41.58-17.41,20.6-19.84,41.08-21.09,69.18-19.84,7.52,0,15.37-.25,23.98-.77,13.66-.83,26.19,5.2,37.22-.51,5.71-2.93,17.07-10.4,24.46-14.75,1.13-.66,3.19-2.43,3.28-3.74.06-.85.3-1.67.1-4.39-.29-3.84-4.55-8.74-4.35-9.66-.13.6.08,1.48.69,2.12.35-.93.57-1.61.61-1.87-.04.29.11.75.47,1.05v-3.55c2.95-1.11,5.96.78,7.96,2.55,1.13.87,2.16,1.85,3.05,1.69,6.52-2.34,9.65-.54,16.19-.08l2.42-1.19c-.07,2.69-1.11,10.5-.46,13.73.82,5.08,8.81,6.89,12.62,8.14l1.15.65c23.96,22.37,61.21,13.53,94.78,12.49,18.81-.46,35.51,4.11,48.72,13.78,9.64,6.94,20.45,10.85,32.12,11.58,6.98.45,15.13,1.49,22.62,5.79,3.05,1.75,5.91,3.69,8.78,5.6Z" style="stroke-width: 0px;"/>
  </g>
</svg>