<?xml version="1.0" encoding="UTF-8"?>
<svg id="Layer_2" data-name="Layer 2" xmlns="http://www.w3.org/2000/svg" viewBox="0 0 500 500">
  <circle cx="250" cy="192.78" r="90.14" transform="translate(-63.1 233.24) rotate(-45)" style="stroke-width: 0px;"/>
  <path d="m250,0C112.14,0,0,112.14,0,250c0,66.02,25.73,126.15,67.68,170.87,45.64,48.67,110.48,79.13,182.32,79.13s137.52-30.84,183.2-80.07c41.44-44.63,66.8-104.37,66.8-169.93C500,112.14,387.86,0,250,0Zm165.39,375.23c-8.53-15.32-19.14-29.33-31.47-41.64-18.62-18.62-41.14-33.39-66.17-42.89-19.23,13.36-42.6,21.21-67.76,21.21s-48.19-7.73-67.35-20.93c-41.58,16-76.12,46.46-97.38,85.12-26.85-34.98-42.82-78.72-42.82-126.1,0-114.43,93.12-207.55,207.55-207.55s207.55,93.12,207.55,207.55c0,46.99-15.71,90.4-42.16,125.23Z" style="stroke-width: 0px;"/>
</svg>